<?xml version="1.0" encoding="UTF-8"?>
<svg width="100px" height="69px" viewBox="0 0 100 69" version="1.1" xmlns="http://www.w3.org/2000/svg" xmlns:xlink="http://www.w3.org/1999/xlink">
    <!-- Generator: Sketch 50 (54983) - http://www.bohemiancoding.com/sketch -->
    <title>Shape</title>
    <desc>Created with Sketch.</desc>
    <defs></defs>
    <g id="Page-1" stroke="none" stroke-width="1" fill="none" fill-rule="evenodd">
        <g id="Dashboard-empty" transform="translate(-667.000000, -247.000000)" fill="#2393ED" fill-rule="nonzero">
            <g id="dashboard" transform="translate(505.000000, 247.000000)">
                <path d="M177.2,54.1 C177.2,52.7 178.3,51.6 179.7,51.6 L202.7,51.6 C204.1,51.6 205.2,52.7 205.2,54.1 L205.2,54.5 L217.9,54.5 L217.9,54.1 C217.9,52.7 219,51.6 220.4,51.6 L243.5,51.6 C244.9,51.6 246,52.7 246,54.1 C246,55.5 244.9,56.6 243.5,56.6 L222.5,56.6 C221.7,58.3 220,59.5 217.9,59.5 L205.3,59.5 C203.3,59.5 201.5,58.3 200.7,56.6 L179.7,56.6 C178.4,56.6 177.2,55.5 177.2,54.1 Z M162,58.8 L162,54.1 C162,52.7 163.1,51.6 164.5,51.6 L169.2,51.6 L169.2,6.5 C169.2,2.9 172.1,0 175.7,0 L247.2,0 C250.7,0 253.6,2.7 253.9,6.3 C253.9,6.4 253.9,6.5 253.9,6.5 L253.9,51.6 L258.6,51.6 C260,51.6 261.1,52.7 261.1,54.1 L261.1,58.8 C261.1,64.1 256.8,68.4 251.5,68.4 L171.6,68.4 C166.3,68.4 162,64.1 162,58.8 Z M167,58.8 C167,61.3 169.1,63.4 171.6,63.4 L251.6,63.4 C254.1,63.4 256.2,61.3 256.2,58.8 L256.2,56.6 L251.5,56.6 C250.1,56.6 249,55.5 249,54.1 L249,6.7 C248.9,5.8 248.1,5 247.3,5 L175.7,5 C174.9,5 174.2,5.7 174.2,6.5 L174.2,54.1 C174.2,55.5 173.1,56.6 171.7,56.6 L167,56.6 L167,58.8 Z M202.1,39 C202.6,39.5 203.2,39.7 203.9,39.7 C204.6,39.7 205.2,39.5 205.7,39 L211.7,33 L217.7,39 C218.2,39.5 218.8,39.7 219.5,39.7 C220.2,39.7 220.8,39.5 221.3,39 C222.3,38 222.3,36.4 221.3,35.5 L215.3,29.5 L221.3,23.5 C222.3,22.5 222.3,20.9 221.3,20 C220.3,19 218.7,19 217.8,20 L211.8,26 L205.8,20 C204.8,19 203.2,19 202.3,20 C201.3,21 201.3,22.6 202.3,23.5 L208.3,29.5 L202.3,35.5 C201.1,36.4 201.1,38 202.1,39 Z" id="Shape"></path>
            </g>
        </g>
    </g>
</svg>